REM DIRINDEX 1\6,1\2\7,1\2\8,1\2\9,1\3\10,1\3\11,1\4\12,1\4\13,1\4\14,1\5\15,1\5\16,1\5\17
REM DIRNAME cjc040,folder01,folder02,folder03,folder04,folder05,folder06,folder07,folder08,folder09,folder10,folder11,folder12,folder13,folder14,folder15,folder16
TITLE ""
FILE "P2Q_k_081-090.mp3" MP3
  TRACK 01 AUDIO
    TITLE "15:cjc040_1569"
    INDEX 01 00:00:00
  TRACK 02 AUDIO
    TITLE "0:"
    INDEX 01 00:01:46
  TRACK 03 AUDIO
    TITLE "16:cjc040_1570"
    INDEX 01 00:02:24
  TRACK 04 AUDIO
    TITLE "0:"
    INDEX 01 00:03:41
  TRACK 05 AUDIO
    TITLE "17:cjc040_1571"
    INDEX 01 00:04:17
  TRACK 06 AUDIO
    TITLE "17:cjc040_1572"
    INDEX 01 00:05:48
  TRACK 07 AUDIO
    TITLE "0:"
    INDEX 01 00:07:27
  TRACK 08 AUDIO
    TITLE "15:cjc040_1573"
    INDEX 01 00:08:05
  TRACK 09 AUDIO
    TITLE "0:"
    INDEX 01 00:10:10
  TRACK 10 AUDIO
    TITLE "16:cjc040_1574"
    INDEX 01 00:10:68
  TRACK 11 AUDIO
    TITLE "0:"
    INDEX 01 00:11:72
  TRACK 12 AUDIO
    TITLE "17:cjc040_1575"
    INDEX 01 00:12:58
  TRACK 13 AUDIO
    TITLE "17:cjc040_1576"
    INDEX 01 00:15:15
  TRACK 14 AUDIO
    TITLE "0:"
    INDEX 01 00:17:16
  TRACK 15 AUDIO
    TITLE "15:cjc040_1577"
    INDEX 01 00:17:65
  TRACK 16 AUDIO
    TITLE "0:"
    INDEX 01 00:19:15
  TRACK 17 AUDIO
    TITLE "16:cjc040_1578"
    INDEX 01 00:19:69
  TRACK 18 AUDIO
    TITLE "0:"
    INDEX 01 00:21:13
  TRACK 19 AUDIO
    TITLE "17:cjc040_1579"
    INDEX 01 00:21:64
  TRACK 20 AUDIO
    TITLE "17:cjc040_1580"
    INDEX 01 00:25:09
  TRACK 21 AUDIO
    TITLE "0:"
    INDEX 01 00:27:14
  TRACK 22 AUDIO
    TITLE "15:cjc040_1581"
    INDEX 01 00:27:65
  TRACK 23 AUDIO
    TITLE "0:"
    INDEX 01 00:29:34
  TRACK 24 AUDIO
    TITLE "16:cjc040_1582"
    INDEX 01 00:30:16
  TRACK 25 AUDIO
    TITLE "0:"
    INDEX 01 00:32:07
  TRACK 26 AUDIO
    TITLE "17:cjc040_1583"
    INDEX 01 00:32:58
  TRACK 27 AUDIO
    TITLE "17:cjc040_1584"
    INDEX 01 00:35:37
  TRACK 28 AUDIO
    TITLE "0:"
    INDEX 01 00:36:48
  TRACK 29 AUDIO
    TITLE "15:cjc040_1585"
    INDEX 01 00:37:22
  TRACK 30 AUDIO
    TITLE "0:"
    INDEX 01 00:38:53
  TRACK 31 AUDIO
    TITLE "16:cjc040_1586"
    INDEX 01 00:39:33
  TRACK 32 AUDIO
    TITLE "0:"
    INDEX 01 00:40:50
  TRACK 33 AUDIO
    TITLE "17:cjc040_1587"
    INDEX 01 00:41:26
  TRACK 34 AUDIO
    TITLE "17:cjc040_1588"
    INDEX 01 00:43:72
  TRACK 35 AUDIO
    TITLE "0:"
    INDEX 01 00:46:43
  TRACK 36 AUDIO
    TITLE "15:cjc040_1589"
    INDEX 01 00:47:21
  TRACK 37 AUDIO
    TITLE "0:"
    INDEX 01 00:48:57
  TRACK 38 AUDIO
    TITLE "16:cjc040_1590"
    INDEX 01 00:49:43
  TRACK 39 AUDIO
    TITLE "0:"
    INDEX 01 00:51:03
  TRACK 40 AUDIO
    TITLE "17:cjc040_1591"
    INDEX 01 00:51:62
  TRACK 41 AUDIO
    TITLE "17:cjc040_1592"
    INDEX 01 00:55:16
  TRACK 42 AUDIO
    TITLE "0:"
    INDEX 01 00:56:51
  TRACK 43 AUDIO
    TITLE "15:cjc040_1593"
    INDEX 01 00:57:25
  TRACK 44 AUDIO
    TITLE "0:"
    INDEX 01 00:59:39
  TRACK 45 AUDIO
    TITLE "16:cjc040_1594"
    INDEX 01 01:00:19
  TRACK 46 AUDIO
    TITLE "0:"
    INDEX 01 01:02:12
  TRACK 47 AUDIO
    TITLE "17:cjc040_1595"
    INDEX 01 01:02:61
  TRACK 48 AUDIO
    TITLE "17:cjc040_1596"
    INDEX 01 01:06:43
  TRACK 49 AUDIO
    TITLE "0:"
    INDEX 01 01:09:52
  TRACK 50 AUDIO
    TITLE "15:cjc040_1597"
    INDEX 01 01:10:31
  TRACK 51 AUDIO
    TITLE "0:"
    INDEX 01 01:12:15
  TRACK 52 AUDIO
    TITLE "16:cjc040_1598"
    INDEX 01 01:12:71
  TRACK 53 AUDIO
    TITLE "0:"
    INDEX 01 01:14:61
  TRACK 54 AUDIO
    TITLE "17:cjc040_1599"
    INDEX 01 01:15:40
  TRACK 55 AUDIO
    TITLE "17:cjc040_1600"
    INDEX 01 01:17:14
  TRACK 56 AUDIO
    TITLE "0:"
    INDEX 01 01:18:70
  TRACK 57 AUDIO
    TITLE "15:cjc040_1601"
    INDEX 01 01:19:44
  TRACK 58 AUDIO
    TITLE "0:"
    INDEX 01 01:21:10
  TRACK 59 AUDIO
    TITLE "16:cjc040_1602"
    INDEX 01 01:21:61
  TRACK 60 AUDIO
    TITLE "0:"
    INDEX 01 01:23:01
  TRACK 61 AUDIO
    TITLE "17:cjc040_1603"
    INDEX 01 01:23:62
  TRACK 62 AUDIO
    TITLE "17:cjc040_1604"
    INDEX 01 01:26:62
  TRACK 63 AUDIO
    TITLE "0:"
    INDEX 01 01:32:17
  TRACK 64 AUDIO
    TITLE "15:cjc040_1605"
    INDEX 01 01:32:70
  TRACK 65 AUDIO
    TITLE "0:"
    INDEX 01 01:34:12
  TRACK 66 AUDIO
    TITLE "16:cjc040_1606"
    INDEX 01 01:34:69
  TRACK 67 AUDIO
    TITLE "0:"
    INDEX 01 01:36:13
  TRACK 68 AUDIO
    TITLE "17:cjc040_1607"
    INDEX 01 01:36:62
  TRACK 69 AUDIO
    TITLE "17:cjc040_1608"
    INDEX 01 01:38:32
  TRACK 70 AUDIO
    TITLE "0:"
    INDEX 01 01:42:37
